# xmcd
#
# Track frame offsets:
#	150
#	21005
#	47642
#	61957
#	76422
#	91340
#	114772
#	126840
#	142037
#	154365
#	167455
#	187262
#	194700
#	207565
#	215380
#	229740
#	252172
#
# Disc length: 3672 seconds
#
# Revision: 1
# Processed by: cddbd v1.5.1PL0 Copyright (c) Steve Scherf et al.
# Submitted via: CDex 1.50Beta5
#
DISCID=f30e5611
DTITLE=PYG - J-POPヒットパレード HISTORY OF wp PYG ヒット・コレクション
DYEAR=1998
DGENRE=Pop
TTITLE0=花・太陽・雨
TTITLE1=やすらぎを求めて
TTITLE2=自由に歩いて愛して
TTITLE3=淋しさをわかりかけた時
TTITLE4=もどらない日々
TTITLE5=何もない部屋
TTITLE6=遠いふるさとへ
TTITLE7=初めての涙
TTITLE8=お前と俺
TTITLE9=戻れない道
TTITLE10=明日の旅
TTITLE11=サンデイ・ドライバー
TTITLE12=白い昼下がり
TTITLE13=ジェフ
TTITLE14=ラブ・オブ・ピース・アンド・ホープ
TTITLE15=祈る
TTITLE16=花・太陽・雨
EXTD=
EXTT0=
EXTT1=
EXTT2=
EXTT3=
EXTT4=
EXTT5=
EXTT6=
EXTT7=
EXTT8=
EXTT9=
EXTT10=
EXTT11=
EXTT12=
EXTT13=
EXTT14=
EXTT15=
EXTT16=
PLAYORDER=
